Patient4_TMGait_0pt2_02_right_04_EMG.mot
version=1
nRows=20
nColumns=33
inDegrees=no
endheader
time	1LAddLong	2LGlutMax	3LGlutMed	4LIliopsoas	5LSemiMemb	6LBicFemLong	7LRecFem	8LVastMed	9LVastLat	10LGasMed	11LTibAnt	12lTibPost	13LPeroneusLong	14LSol	15LExtDigLong	16LFlexDigLong	17RAddLong	18RGlutMax	19RGlutMed	20RIliopsoas	21RSemiMemb	22RBicFemLong	23RRecFem	24RVastMed	25RVastLat	26RGasMed	27RTibAnt	28RTibPost	29RPeroneusLong	30RSol	31RExtDigLong	32RFlexDigLong
7.65	-0.003052	-0.10025	-0.41138	0.00351	0.046692	0.12543	-0.059509	0.010071	-0.12711	0.25559	-0.002136	0.018768	-0.06424	0.007477	0.065308	0.002594	0.001373	-0.031433	0.11307	0.26871	-0.016785	0.024567	0.074005	0.010529	-0.030975	0.011902	0.0383	-0.004425	-0.11032	0.039368	-0.004883	-0.016022
7.651	-0.013885	-0.15717	-0.41763	-0.006256	-0.007935	0.12787	-0.013885	0.00824	-0.24872	0.14221	-0.02182	0.015411	0.03067	-0.048676	0.079346	0.019989	0.009155	0.009613	0.65155	0.058289	-0.010681	0.025024	0.06485	0.02121	-0.018158	0.006409	0.035706	-0.003357	0.072327	0.054932	-0.006714	-0.012817
7.652	-0.021667	-0.16739	-0.25635	-0.006104	-0.12436	0.11429	0.054474	-0.002136	-0.42145	-0.082092	-0.016022	-0.029144	-0.00061	-0.084686	0.06424	0.028229	-0.008545	0.009918	1.1456	-0.01358	-0.012817	0.046082	0.028381	0.027618	-0.041962	0.005188	0.020447	-0.006866	0.26413	0.029755	-0.002441	-0.013733
7.653	-0.005798	-0.15106	0.015259	0.007782	-0.16739	0.001526	0.061951	-0.008392	-0.44357	-0.16373	-0.016632	-0.030975	-0.085449	-0.36499	0.026245	0.00885	-0.026855	-0.039368	0.77225	-0.036163	0.011292	0.048828	0.020294	0.046387	-0.026245	0.007019	0.011139	-0.000763	0.159	0.005951	0.00473	-0.00885
7.654	0.004425	-0.19623	0.054779	0.000153	-0.06134	-0.085297	0.08255	-0.001068	-0.21774	-0.1294	-0.010071	-0.013275	0.015259	-0.5809	-0.002289	0.005035	0.005035	-0.048981	-0.1947	-0.024109	0.033264	0.051117	0.001526	0.046082	0.01236	0.016174	-0.001831	-0.000458	0.08606	-0.052948	-0.003052	-0.00824
7.655	0.016022	-0.26947	-0.016937	0.00351	0.026703	-0.08728	0.075226	-0.002899	-0.083008	-0.087891	0.011444	-0.008545	0.00061	-0.48355	-0.007782	0.000763	0.010681	-0.03952	0.085907	-0.011444	0.019073	0.04715	-0.015564	0.074768	0.025177	0.013733	-0.02121	0.012054	0.14252	-0.072784	-0.000153	-0.001373
7.656	0.016937	-0.23666	0.1004	-0.006409	0.093384	-0.065765	0.074921	0.010529	-0.0383	-0.045319	0.021362	0.000153	-0.16998	0.020905	0.005493	0.011597	0.049133	-0.055695	0.032043	0.015106	0.007477	0.038452	0.016479	0.023651	0.012054	0.013885	-0.032196	-0.000763	0.015106	-0.058289	-0.006409	-0.007019
7.657	0.009155	-0.14755	0.2475	-0.00885	0.066071	-0.026703	0.099487	0.005646	-0.16098	0.009613	0.014038	0.000305	-0.042725	0.24979	-0.024109	0.000458	0.043945	-0.022888	0.16052	0.070953	0.004425	0.046539	-0.012512	0.02594	0.01358	0.008698	-0.012665	0.002594	-0.19379	-0.075684	-0.001678	-0.012207
7.658	0.013885	-0.022888	0.16174	-0.004272	0.03006	-0.015564	0.036316	-0.013275	-0.19073	0.033875	-0.003662	-0.005798	0.36896	0.33768	0.020752	-0.005341	0.019073	-0.087128	0.42374	0.073853	0.006256	0.041962	0.045929	0.041962	0.023956	0.011749	-0.015564	0.002747	-0.24033	-0.02655	-0.007477	-0.015564
7.659	0.020905	0.026855	0.14908	0.002441	0.026398	-0.12756	-0.055847	-0.022125	-0.14694	0.017395	0.009766	0.000305	0.055084	0.22842	0.009613	0.003357	-0.014496	-0.18692	0.23361	0.06485	0.010071	0.057831	0.033875	0.036163	0.014801	0.00946	-0.002136	0.001221	-0.19486	0.070648	-0.000916	-0.007477
7.66	0.022125	0.13809	0.17822	0.007935	0.014648	-0.046692	-0.13306	-0.005493	0.024109	-0.042877	0.00824	-0.002594	0.17364	0.002899	0.09964	0.007629	-0.04776	-0.21088	-0.16586	0.069275	0.015106	0.053864	0.050201	0.01358	-0.001831	0.009308	-0.009155	0.002289	0.071564	-0.039215	-0.006561	-0.000458
7.661	0.015106	0.27481	0.18326	0.015564	-0.006409	0.099182	-0.21622	-0.00885	0.080261	-0.040741	0.009918	0.008087	-0.14465	-0.14481	0.061188	0.001526	-0.03418	-0.19012	-0.15182	0.032959	0.015869	0.060272	0.079651	0.084229	-0.018768	0.007629	0.001526	0.00351	0.23895	-0.1088	-0.005341	-0.007935
7.662	0.004578	0.27695	0.11017	0.009918	-0.036163	0.22461	-0.2095	-0.006561	0.023041	-0.049591	0.011292	0.005341	-0.71075	-0.099487	0.057526	-0.000305	-0.025024	-0.16937	-0.04425	0	0.0177	0.027161	0.11185	0.027466	-0.031738	0.001221	0.014954	0.005341	0.17731	-0.12466	0.004272	-0.014801
7.663	-0.001373	0.24979	0.27145	-0.002747	-0.056	0.20081	-0.14908	-0.006866	-0.000916	-0.044708	0.010071	0.005341	-0.016785	-0.25024	-0.06546	0.016327	-0.005646	-0.11917	-0.059662	-0.093536	0.017395	0.040894	0.047455	0.074158	-0.021515	-0.006714	0.010834	0.004578	0.12665	-0.04303	-0.004578	-0.012512
7.664	-0.009918	0.21759	0.12802	-0.002747	-0.036316	0.13489	-0.15152	0.01358	-0.10361	-0.002136	-0.005341	0.00061	0.17441	-0.055847	-0.003815	0.014343	0.011139	-0.18234	0.077972	-0.099182	0.016632	0.016327	0.034027	0.04425	-0.038452	0.000916	-0.001678	0.002441	0.07309	-0.010834	-0.001984	-0.011139
7.665	-0.010986	0.22736	0.076904	0.027008	0.035858	0.10956	-0.159	0.046234	-0.24185	0.032349	0.011902	0.012817	0.16769	0.04364	0.009613	0.01236	0.021515	-0.20477	0.30197	-0.029907	0.014343	0.023804	0.092621	0.035248	-0.045929	0.007324	0.00351	0.00473	0.030823	0.001068	-0.003204	-0.020447
7.666	-0.011292	0.18036	0.053711	-0.011902	0.075073	0.056458	-0.06134	0.03952	-0.15091	0.031738	-0.002594	0.003204	0.1326	0.066223	-0.039215	0.010834	0.025635	-0.177	0.24612	-0.025635	0.018463	0.014801	0.063019	0.054779	-0.037231	0.004578	0.010223	0.002594	-0.042877	0.030212	0.001526	-0.016022
7.667	-0.01358	0.12924	-0.1091	-0.019836	0.045929	0.18158	0.0354	0.02121	0.073853	0.084076	-0.007782	0.012054	0.21423	0.089417	-0.062408	0.014343	0.020905	-0.12314	0.066223	0.028381	0.014038	0.018005	0.078583	0.033722	-0.032959	-0.003204	0.006104	0.000763	-0.086823	0.062561	0	-0.010376
7.668	-0.00351	0.02243	-0.14587	0.002899	0.018616	0.32181	0.20905	0.00061	0.2681	0.12528	0.012054	0.005035	0.22064	0.16022	-0.018158	0.02121	0.029449	-0.089417	0.27878	0.082092	0.007629	0.005341	0.032806	0.000153	-0.03479	-0.001068	0.003815	0.003967	-0.097046	0.022583	-0.002594	-0.011749
7.669	0.019073	-0.0914	-0.16235	-0.003662	0.020599	0.28824	0.20935	-0.015564	0.39215	0.11658	-0.002136	-0.001678	0.32608	0.29358	0.035248	0.017395	0.084076	-0.17151	0.024414	0.071869	0.01236	0.015869	0.023193	0.014343	-0.021362	-0.002899	0.009003	0.001068	-0.059357	-0.020752	-0.003052	-0.008392
